<?xml version="1.0" encoding="UTF-8"?>
<svg width="430pt" version="1.1" xmlns="http://www.w3.org/2000/svg" height="110pt" viewBox="0 0 430 110" xmlns:xlink="http://www.w3.org/1999/xlink">
 <defs>
  <path id="GlBitstreamVeraSans-Roman110" d="M5.48828 6.69922 L5.48828 10 L4.58984 10 L4.58984 6.72844 C4.58984 6.72844 4.58984 5.95219 4.28703 5.56641 C4.28703 5.56641 3.98438 5.18063 3.37891 5.18063 C3.37891 5.18063 2.65141 5.18063 2.23141 5.64453 C2.23141 5.64453 1.81156 6.10844 1.81156 6.90922 L1.81156 10 L0.908281 10 L0.908281 4.53125 L1.81156 4.53125 L1.81156 5.38078 C1.81156 5.38078 2.13375 4.88766 2.57078 4.64359 C2.57078 4.64359 3.00781 4.39938 3.57906 4.39938 C3.57906 4.39938 4.52156 4.39938 5.00484 4.98297 C5.00484 4.98297 5.48828 5.56641 5.48828 6.69922 Z"/>
  <path id="GlBitstreamVeraSans-Roman116" d="M1.83109 2.97844 L1.83109 4.53125 L3.68172 4.53125 L3.68172 5.22953 L1.83109 5.22953 L1.83109 8.19828 C1.83109 8.19828 1.83109 8.86719 2.01422 9.05766 C2.01422 9.05766 2.19734 9.24797 2.75875 9.24797 L3.68172 9.24797 L3.68172 10 L2.75875 10 C2.75875 10 1.71875 10 1.32328 9.61187 C1.32328 9.61187 0.927813 9.22359 0.927813 8.19828 L0.927813 5.22953 L0.268594 5.22953 L0.268594 4.53125 L0.927813 4.53125 L0.927813 2.97844 L1.83109 2.97844 Z"/>
  <path id="GlBitstreamVeraSans-Roman101" d="M5.62016 7.04094 L5.62016 7.48047 L1.48922 7.48047 C1.48922 7.48047 1.54781 8.40813 2.04828 8.89406 C2.04828 8.89406 2.54891 9.37984 3.44234 9.37984 C3.44234 9.37984 3.96 9.37984 4.44578 9.25297 C4.44578 9.25297 4.93172 9.12594 5.41016 8.87203 L5.41016 9.72172 C5.41016 9.72172 4.92672 9.92672 4.41891 10.0341 C4.41891 10.0341 3.91109 10.1416 3.38875 10.1416 C3.38875 10.1416 2.08016 10.1416 1.31594 9.37984 C1.31594 9.37984 0.551719 8.61812 0.551719 7.31937 C0.551719 7.31937 0.551719 5.97656 1.27687 5.18797 C1.27687 5.18797 2.00203 4.39938 3.2325 4.39938 C3.2325 4.39938 4.33594 4.39938 4.97797 5.10984 C4.97797 5.10984 5.62016 5.82031 5.62016 7.04094 L5.62016 7.04094 Z M4.72172 6.77734 C4.72172 6.77734 4.71188 6.04 4.30906 5.60062 C4.30906 5.60062 3.90625 5.16109 3.24219 5.16109 C3.24219 5.16109 2.49031 5.16109 2.03859 5.58594 C2.03859 5.58594 1.58688 6.01078 1.51859 6.78219 L4.72172 6.77734 Z"/>
  <path id="GlBitstreamVeraSans-Roman109" d="M5.20016 5.58109 C5.20016 5.58109 5.53719 4.97562 6.00594 4.6875 C6.00594 4.6875 6.47469 4.39938 7.10938 4.39938 C7.10938 4.39938 7.96391 4.39938 8.42766 4.9975 C8.42766 4.9975 8.89156 5.59563 8.89156 6.69922 L8.89156 10 L7.98828 10 L7.98828 6.72844 C7.98828 6.72844 7.98828 5.94234 7.71 5.56156 C7.71 5.56156 7.43172 5.18063 6.86031 5.18063 C6.86031 5.18063 6.16219 5.18063 5.75687 5.64453 C5.75687 5.64453 5.35156 6.10844 5.35156 6.90922 L5.35156 10 L4.44828 10 L4.44828 6.72844 C4.44828 6.72844 4.44828 5.9375 4.16984 5.55906 C4.16984 5.55906 3.89156 5.18063 3.31062 5.18063 C3.31062 5.18063 2.62203 5.18063 2.21672 5.64703 C2.21672 5.64703 1.81156 6.11328 1.81156 6.90922 L1.81156 10 L0.908281 10 L0.908281 4.53125 L1.81156 4.53125 L1.81156 5.38078 C1.81156 5.38078 2.11922 4.87797 2.54891 4.63875 C2.54891 4.63875 2.97859 4.39938 3.56937 4.39938 C3.56937 4.39938 4.165 4.39938 4.5825 4.70219 C4.5825 4.70219 5 5.00484 5.20016 5.58109 Z"/>
  <path id="GlBitstreamVeraSans-Roman112" d="M1.81156 9.17969 L1.81156 12.0802 L0.908281 12.0802 L0.908281 4.53125 L1.81156 4.53125 L1.81156 5.36125 C1.81156 5.36125 2.09469 4.87297 2.52687 4.63625 C2.52687 4.63625 2.95906 4.39938 3.55953 4.39938 C3.55953 4.39938 4.55563 4.39938 5.17813 5.19047 C5.17813 5.19047 5.80078 5.98141 5.80078 7.27047 C5.80078 7.27047 5.80078 8.55953 5.17813 9.35063 C5.17813 9.35063 4.55563 10.1416 3.55953 10.1416 C3.55953 10.1416 2.95906 10.1416 2.52687 9.90484 C2.52687 9.90484 2.09469 9.66797 1.81156 9.17969 L1.81156 9.17969 Z M4.86813 7.27047 C4.86813 7.27047 4.86813 6.27922 4.46047 5.71531 C4.46047 5.71531 4.05281 5.15141 3.33984 5.15141 C3.33984 5.15141 2.62703 5.15141 2.21922 5.71531 C2.21922 5.71531 1.81156 6.27922 1.81156 7.27047 C1.81156 7.27047 1.81156 8.26172 2.21922 8.82578 C2.21922 8.82578 2.62703 9.38969 3.33984 9.38969 C3.33984 9.38969 4.05281 9.38969 4.46047 8.82578 C4.46047 8.82578 4.86813 8.26172 4.86813 7.27047 Z"/>
  <path id="GlBitstreamVeraSans-Roman111" d="M3.06156 5.16109 C3.06156 5.16109 2.33891 5.16109 1.91891 5.72516 C1.91891 5.72516 1.49906 6.28906 1.49906 7.27047 C1.49906 7.27047 1.49906 8.25188 1.91656 8.81594 C1.91656 8.81594 2.33406 9.37984 3.06156 9.37984 C3.06156 9.37984 3.77937 9.37984 4.19922 8.81344 C4.19922 8.81344 4.61922 8.24703 4.61922 7.27047 C4.61922 7.27047 4.61922 6.29875 4.19922 5.73 C4.19922 5.73 3.77937 5.16109 3.06156 5.16109 L3.06156 5.16109 Z M3.06156 4.39938 C3.06156 4.39938 4.23344 4.39938 4.90234 5.16109 C4.90234 5.16109 5.57125 5.92281 5.57125 7.27047 C5.57125 7.27047 5.57125 8.61328 4.90234 9.3775 C4.90234 9.3775 4.23344 10.1416 3.06156 10.1416 C3.06156 10.1416 1.88484 10.1416 1.21828 9.3775 C1.21828 9.3775 0.551719 8.61328 0.551719 7.27047 C0.551719 7.27047 0.551719 5.92281 1.21828 5.16109 C1.21828 5.16109 1.88484 4.39938 3.06156 4.39938 Z"/>
  <path id="GlBitstreamVeraSans-Roman74" d="M0.981406 2.71 L1.96781 2.71 L1.96781 9.49219 C1.96781 9.49219 1.96781 10.8106 1.46734 11.4062 C1.46734 11.4062 0.966875 12.002 -0.141563 12.002 L-0.517656 12.002 L-0.517656 11.1719 L-0.21 11.1719 C-0.21 11.1719 0.444375 11.1719 0.712812 10.8056 C0.712812 10.8056 0.981406 10.4395 0.981406 9.49219 L0.981406 2.71 Z"/>
  <path id="GlBitstreamVeraSans-Roman83" d="M5.35156 2.94922 L5.35156 3.91109 C5.35156 3.91109 4.79 3.6425 4.29188 3.51078 C4.29188 3.51078 3.79391 3.37891 3.33016 3.37891 C3.33016 3.37891 2.52438 3.37891 2.08734 3.69141 C2.08734 3.69141 1.65047 4.00391 1.65047 4.58 C1.65047 4.58 1.65047 5.06344 1.94094 5.31 C1.94094 5.31 2.23141 5.55656 3.04203 5.70797 L3.63766 5.83 C3.63766 5.83 4.74125 6.04 5.26609 6.56984 C5.26609 6.56984 5.79109 7.09953 5.79109 7.98828 C5.79109 7.98828 5.79109 9.04781 5.08063 9.59469 C5.08063 9.59469 4.37016 10.1416 2.99812 10.1416 C2.99812 10.1416 2.48047 10.1416 1.89688 10.0244 C1.89688 10.0244 1.31344 9.90719 0.688438 9.67766 L0.688438 8.66203 C0.688438 8.66203 1.28906 8.99906 1.86516 9.17 C1.86516 9.17 2.44141 9.34078 2.99812 9.34078 C2.99812 9.34078 3.84281 9.34078 4.30172 9.00875 C4.30172 9.00875 4.76078 8.67672 4.76078 8.06156 C4.76078 8.06156 4.76078 7.52438 4.43109 7.22172 C4.43109 7.22172 4.10156 6.91891 3.34969 6.7675 L2.74906 6.65031 C2.74906 6.65031 1.64547 6.43063 1.15234 5.96188 C1.15234 5.96188 0.659219 5.49313 0.659219 4.65813 C0.659219 4.65813 0.659219 3.69141 1.34031 3.13484 C1.34031 3.13484 2.02156 2.57812 3.21781 2.57812 C3.21781 2.57812 3.73047 2.57812 4.26266 2.67094 C4.26266 2.67094 4.795 2.76359 5.35156 2.94922 Z"/>
 </defs>
 <g id="Hintergrund">
  <path style="stroke:#808080; stroke-width:1; stroke-linecap:butt; stroke-linejoin:miter; stroke-dasharray:none;" d="M 0 0 L 427.501 0" transform="translate(2, 94.75)"/>
  <path style="fill:#a52a2a; fill-rule:evenodd;stroke:none;" d="M0 0 L9.15938 0 L9.15938 93.5625 L0 93.5625 L0 0 Z" transform="translate(57.2, 0.75)"/>
  <path style="fill:#a52a2a; fill-rule:evenodd;stroke:none;" d="M46.5 14.125 C46.5 21.9263 36.0911 28.25 23.25 28.25 C10.4094 28.25 0 21.9263 0 14.125 C0 6.32398 10.4094 0 23.25 0 C36.0911 0 46.5 6.32398 46.5 14.125 Z" transform="translate(20, 80.5)"/>
  <g transform="translate(72, 24.5)">
   <use style="fill:#161413;stroke:none;" xlink:href="#GlBitstreamVeraSans-Roman110" transform="matrix(6.8 0 0 6.8 0 -3.41969)"/>
   <use style="fill:#161413;stroke:none;" xlink:href="#GlBitstreamVeraSans-Roman116" transform="matrix(6.8 0 0 6.8 43.0977 -3.41969)"/>
   <use style="fill:#161413;stroke:none;" xlink:href="#GlBitstreamVeraSans-Roman101" transform="matrix(6.8 0 0 6.8 69.7598 -3.41969)"/>
   <use style="fill:#161413;stroke:none;" xlink:href="#GlBitstreamVeraSans-Roman109" transform="matrix(6.8 0 0 6.8 111.596 -3.41969)"/>
   <use style="fill:#161413;stroke:none;" xlink:href="#GlBitstreamVeraSans-Roman112" transform="matrix(6.8 0 0 6.8 177.836 -3.41969)"/>
   <use style="fill:#161413;stroke:none;" xlink:href="#GlBitstreamVeraSans-Roman111" transform="matrix(6.8 0 0 6.8 221 -3.41969)"/>
   <use style="fill:#a52a2a;stroke:none;" xlink:href="#GlBitstreamVeraSans-Roman74" transform="matrix(8.7 0 0 8.7 262.604 -22.4197)"/>
   <use style="fill:#a52a2a;stroke:none;" xlink:href="#GlBitstreamVeraSans-Roman83" transform="matrix(8.7 0 0 8.7 288.262 -22.4197)"/>
   <path style="fill:none; stroke:none;" d="M0 0 L372.5 0 L372.5 93.25 L0 93.25 L0 0 Z"/>
  </g>
 </g>
</svg>
